<svg xmlns="http://www.w3.org/2000/svg" data-name="Layer 1" width="885.34766" height="595.14492" viewBox="0 0 885.34766 595.14492" xmlns:xlink="http://www.w3.org/1999/xlink"><title>Scalable Communication</title><path d="M268.14941,689.57246c-43.12988,0-78.14942-33.856-78.14942-75.47248V336.49249c0-41.61647,35.01954-75.47248,78.14942-75.47248H930.36133c43.12989,0,78.14942,33.85601,78.14942,75.47248V614.1c0,41.61647-35.01953,75.47248-78.14942,75.47248Z" transform="translate(-157.32617 -152.42754)" fill="#f2f2f2"/><rect x="110.8916" y="228.55132" width="773.55273" height="337.0249" fill="#fff"/><circle cx="497.66797" cy="187.55132" r="15.5249" fill="#f2f2f2"/><path d="M885.34766,380.07246H157.32617V228.55132H885.34766Z" transform="translate(-157.32617 -152.42754)" fill="#6c63ff"/><rect x="55.5249" y="55.5249" width="773.55273" height="337.0249" fill="none" stroke="#3f3d56" stroke-miterlimit="10" stroke-width="2"/><rect x="85.8916" y="85.8916" width="713.11816" height="276.36035" fill="#f2f2f2"/><path d="M885.34766,380.07246H157.32617V228.55132H885.34766Z" transform="translate(-157.32617 -152.42754)" fill="none" stroke="#3f3d56" stroke-miterlimit="10" stroke-width="2"/><circle cx="497.66797" cy="44.5249" r="15.5249" fill="#f2f2f2"/><rect x="160.8916" y="135.8916" width="200" height="20" fill="#6c63ff"/><rect x="160.8916" y="180.8916" width="300" height="20" fill="#6c63ff"/></svg>
