<svg xmlns="http://www.w3.org/2000/svg" data-name="Layer 1" width="1120.59226" height="777.91584" viewBox="0 0 1120.59226 777.91584" xmlns:xlink="http://www.w3.org/1999/xlink"><title>WebSocket Communication</title><path d="M601.61113,789.95792a260.06372,260.06372,0,1,1,183.98849-76.07551A260.29216,260.29216,0,0,1,601.61113,789.95792Z" transform="translate(-39.70387 -61.04208)" fill="#f2f2f2"/><circle cx="435.53671" cy="220.10461" r="86.50625" fill="#ff6584"/><polygon points="536.986 777.916 0 777.916 0 775.828 537.759 775.828 536.986 777.916" fill="#3f3d56"/><path d="M813.686,829.15779c-11.62787-4.24512-23.42376-8.582-33.544-15.38382a128.64887,128.64887,0,0,1-20.16565-17.28115,129.80247,129.80247,0,0,1-20.65152-33.54411c-7.56832-19.11857-10.18151-40.97378-4.24512-61.21047,5.57507-19.19991,18.15842-35.97576,36.69378-44.70957,18.9328-8.93871,42.72985-7.56832,60.65975,2.83772,16.77585,9.65922,28.1988,27.27912,29.37025,46.47909,1.05971,17.85926-5.57507,35.71846-18.15842,48.30187,4.24506,2.83772,8.07862,6.0954,12.32368,8.93871a135.39857,135.39857,0,0,0,18.15842-22.40609,135.96913,135.96913,0,0,0,18.9328-55.63214,138.12466,138.12466,0,0,0-4.24512-62.26992,136.674,136.674,0,0,0-40.97378-63.32963c-19.11857-17.28115-44.70957-28.1988-70.30063-25.359-25.59094,2.83772-49.38805,17.28115-64.38585,38.13825a117.25922,117.25922,0,0,0-20.16565,62.26992c-1.05971,20.65152,3.18535,41.30309,12.32368,59.23294a135.96669,135.96669,0,0,0,47.24216,49.38805,260.06979,260.06979,0,0,0,40.97378,22.40609,260.59887,260.59887,0,0,0,44.70957,15.38382Z" transform="translate(-39.70387 -61.04208)" fill="#3f3d56"/><path d="M546.19444,654.01864a129.42789,129.42789,0,0,1-20.16565-33.54411,128.85044,128.85044,0,0,1-4.24512-61.21047,129.64834,129.64834,0,0,1,36.69378-44.70957,129.01835,129.01835,0,0,1,60.65975,2.83772,128.81878,128.81878,0,0,1,46.47909,29.37025,135.96913,135.96913,0,0,0,18.9328-55.63214,138.12466,138.12466,0,0,0-4.24512-62.26992,136.674,136.674,0,0,0-40.97378-63.32963c-19.11857-17.28115-44.70957-28.1988-70.30063-25.359-25.59094,2.83772-49.38805,17.28115-64.38585,38.13825a117.25922,117.25922,0,0,0-20.16565,62.26992c-1.05971,20.65152,3.18535,41.30309,12.32368,59.23294a135.96669,135.96669,0,0,0,47.24216,49.38805,260.06979,260.06979,0,0,0,40.97378,22.40609,260.59887,260.59887,0,0,0,44.70957,15.38382Z" transform="translate(-39.70387 -61.04208)" fill="none" stroke="#3f3d56" stroke-miterlimit="10"/><path d="M665.29394,688.93948c-11.62787-4.24512-23.42376-8.582-33.544-15.38382a128.64887,128.64887,0,0,1-20.16565-17.28115,129.80247,129.80247,0,0,1-20.65152-33.54411c-7.56832-19.11857-10.18151-40.97378-4.24512-61.21047,5.57507-19.19991,18.15842-35.97576,36.69378-44.70957,18.9328-8.93871,42.72985-7.56832,60.65975,2.83772,16.77585,9.65922,28.1988,27.27912,29.37025,46.47909,1.05971,17.85926-5.57507,35.71846-18.15842,48.30187,4.24506,2.83772,8.07862,6.0954,12.32368,8.93871a135.39857,135.39857,0,0,0,18.15842-22.40609,135.96913,135.96913,0,0,0,18.9328-55.63214,138.12466,138.12466,0,0,0-4.24512-62.26992,136.674,136.674,0,0,0-40.97378-63.32963c-19.11857-17.28115-44.70957-28.1988-70.30063-25.359-25.59094,2.83772-49.38805,17.28115-64.38585,38.13825a117.25922,117.25922,0,0,0-20.16565,62.26992c-1.05971,20.65152,3.18535,41.30309,12.32368,59.23294a135.96669,135.96669,0,0,0,47.24216,49.38805,260.06979,260.06979,0,0,0,40.97378,22.40609,260.59887,260.59887,0,0,0,44.70957,15.38382Z" transform="translate(-39.70387 -61.04208)" fill="none" stroke="#3f3d56" stroke-miterlimit="10"/></svg>
